<!DOCTYPE svg PUBLIC "-//W3C//DTD SVG 1.1//EN" "http://www.w3.org/Graphics/SVG/1.1/DTD/svg11.dtd">
<!-- Uploaded to: SVG Repo, www.svgrepo.com, Transformed by: SVG Repo Mixer Tools -->
<svg width="256px" height="256px" viewBox="0 0 24.00 24.00" fill="none" xmlns="http://www.w3.org/2000/svg" stroke="#000000">
<g id="SVGRepo_bgCarrier" stroke-width="0" transform="translate(2.3999999999999986,2.3999999999999986), scale(0.8)">
<rect x="0" y="0" width="24.00" height="24.00" rx="12" fill="#e52a2a" strokewidth="0"/>
</g>
<g id="SVGRepo_tracerCarrier" stroke-linecap="round" stroke-linejoin="round"/>
<g id="SVGRepo_iconCarrier"> <path fill-rule="evenodd" clip-rule="evenodd" d="M10.2843 8.99988C10.2076 9.00119 10.1346 9.03291 10.0814 9.08805C10.0281 9.14319 9.99895 9.21723 10.0003 9.29388V12.5289H13.7153C13.8211 12.5262 13.9172 12.4669 13.9671 12.3735C14.0169 12.2802 14.0128 12.1673 13.9563 12.0779L13.2563 10.9209C13.1975 10.8248 13.1975 10.7039 13.2563 10.6079L13.9563 9.45088C14.0128 9.36145 14.0169 9.24854 13.9671 9.15522C13.9172 9.06191 13.8211 9.00258 13.7153 8.99988H10.2843Z" stroke="#ffebeb" stroke-width="1.6799999999999997" stroke-linecap="round" stroke-linejoin="round"/> <path fill-rule="evenodd" clip-rule="evenodd" d="M6.18026 8.11089C4.34918 10.8506 4.67688 14.4964 6.96716 16.8657C9.25744 19.235 12.8901 19.686 15.6903 17.9489C15.7569 17.9069 15.8236 17.8639 15.8903 17.8199C18.2141 16.267 19.3915 13.4805 18.8852 10.7317C18.3789 7.98298 16.2859 5.79888 13.5613 5.17589L13.3663 5.13489C10.5895 4.5824 7.75335 5.75696 6.18026 8.11089Z" stroke="#ffebeb" stroke-width="1.6799999999999997" stroke-linecap="round" stroke-linejoin="round"/> <path d="M10.0002 12.5289V14.9999" stroke="#ffebeb" stroke-width="1.6799999999999997" stroke-linecap="round"/> </g>
</svg>